<mxfile host="app.diagrams.net" agent="Mozilla/5.0 (Windows NT 10.0; Win64; x64; rv:132.0) Gecko/20100101 Firefox/132.0" version="24.8.4">
  <diagram name="Halaman-1" id="C_ru_UcLXdzuNMOAcsat">
    <mxGraphModel dx="1956" dy="1000" grid="1" gridSize="10" guides="1" tooltips="1" connect="1" arrows="1" fold="1" page="1" pageScale="1" pageWidth="827" pageHeight="1169" math="0" shadow="0">
      <root>
        <mxCell id="0" />
        <mxCell id="1" parent="0" />
        <mxCell id="_p1aaBmgK1zu_7o9eD-e-1" value="&lt;font style=&quot;font-size: 9px;&quot;&gt;&lt;b style=&quot;mso-bidi-font-weight:normal&quot;&gt;&lt;i style=&quot;mso-bidi-font-style:normal&quot;&gt;&lt;span style=&quot;font-family: &amp;quot;Times New Roman&amp;quot;, serif;&quot;&gt;Activity Diagram Akses Web Instansi Daerah&lt;/span&gt;&lt;/i&gt;&lt;i&gt;&lt;br&gt;&lt;/i&gt;&lt;/b&gt;&lt;/font&gt;" style="swimlane;html=1;childLayout=stackLayout;startSize=20;rounded=0;shadow=0;labelBackgroundColor=none;strokeWidth=1;fontFamily=Verdana;fontSize=8;align=center;" vertex="1" parent="1">
          <mxGeometry x="50" y="78" width="440" height="472" as="geometry" />
        </mxCell>
        <mxCell id="_p1aaBmgK1zu_7o9eD-e-2" value="User" style="swimlane;html=1;startSize=20;" vertex="1" parent="_p1aaBmgK1zu_7o9eD-e-1">
          <mxGeometry y="20" width="210" height="452" as="geometry" />
        </mxCell>
        <mxCell id="_p1aaBmgK1zu_7o9eD-e-3" style="edgeStyle=orthogonalEdgeStyle;rounded=0;orthogonalLoop=1;jettySize=auto;html=1;entryX=0.5;entryY=0;entryDx=0;entryDy=0;" edge="1" parent="_p1aaBmgK1zu_7o9eD-e-2" source="_p1aaBmgK1zu_7o9eD-e-4" target="_p1aaBmgK1zu_7o9eD-e-5">
          <mxGeometry relative="1" as="geometry" />
        </mxCell>
        <mxCell id="_p1aaBmgK1zu_7o9eD-e-4" value="" style="strokeWidth=2;html=1;shape=mxgraph.flowchart.start_2;whiteSpace=wrap;" vertex="1" parent="_p1aaBmgK1zu_7o9eD-e-2">
          <mxGeometry x="65" y="50" width="30" height="30" as="geometry" />
        </mxCell>
        <mxCell id="_p1aaBmgK1zu_7o9eD-e-5" value="Akses Website" style="rounded=1;whiteSpace=wrap;html=1;fontSize=10;" vertex="1" parent="_p1aaBmgK1zu_7o9eD-e-2">
          <mxGeometry x="30" y="110" width="100" height="30" as="geometry" />
        </mxCell>
        <mxCell id="_p1aaBmgK1zu_7o9eD-e-21" style="edgeStyle=orthogonalEdgeStyle;rounded=0;orthogonalLoop=1;jettySize=auto;html=1;" edge="1" parent="_p1aaBmgK1zu_7o9eD-e-2" source="_p1aaBmgK1zu_7o9eD-e-6" target="_p1aaBmgK1zu_7o9eD-e-9">
          <mxGeometry relative="1" as="geometry" />
        </mxCell>
        <mxCell id="_p1aaBmgK1zu_7o9eD-e-6" value="Melihat daftar instansi" style="rounded=1;whiteSpace=wrap;html=1;fontSize=10;" vertex="1" parent="_p1aaBmgK1zu_7o9eD-e-2">
          <mxGeometry x="30" y="232" width="100" height="30" as="geometry" />
        </mxCell>
        <mxCell id="_p1aaBmgK1zu_7o9eD-e-7" value="&lt;div&gt;Tampil Homepage&lt;/div&gt;&lt;div&gt;web portal&lt;br&gt;&lt;/div&gt;" style="rounded=1;whiteSpace=wrap;html=1;fontSize=10;" vertex="1" parent="_p1aaBmgK1zu_7o9eD-e-2">
          <mxGeometry x="270" y="110" width="100" height="30" as="geometry" />
        </mxCell>
        <mxCell id="_p1aaBmgK1zu_7o9eD-e-40" style="edgeStyle=orthogonalEdgeStyle;rounded=0;orthogonalLoop=1;jettySize=auto;html=1;" edge="1" parent="_p1aaBmgK1zu_7o9eD-e-2" source="_p1aaBmgK1zu_7o9eD-e-9" target="_p1aaBmgK1zu_7o9eD-e-11">
          <mxGeometry relative="1" as="geometry" />
        </mxCell>
        <mxCell id="_p1aaBmgK1zu_7o9eD-e-9" value="Pilih Instansi" style="rounded=1;whiteSpace=wrap;html=1;fontSize=10;" vertex="1" parent="_p1aaBmgK1zu_7o9eD-e-2">
          <mxGeometry x="30" y="322" width="100" height="30" as="geometry" />
        </mxCell>
        <mxCell id="_p1aaBmgK1zu_7o9eD-e-10" style="edgeStyle=orthogonalEdgeStyle;rounded=0;orthogonalLoop=1;jettySize=auto;html=1;entryX=0.5;entryY=0;entryDx=0;entryDy=0;" edge="1" parent="_p1aaBmgK1zu_7o9eD-e-2" source="_p1aaBmgK1zu_7o9eD-e-11" target="_p1aaBmgK1zu_7o9eD-e-12">
          <mxGeometry relative="1" as="geometry" />
        </mxCell>
        <mxCell id="_p1aaBmgK1zu_7o9eD-e-11" value="Mengarahkan instansi terkait" style="rounded=1;whiteSpace=wrap;html=1;fontSize=10;" vertex="1" parent="_p1aaBmgK1zu_7o9eD-e-2">
          <mxGeometry x="270" y="322" width="100" height="30" as="geometry" />
        </mxCell>
        <mxCell id="_p1aaBmgK1zu_7o9eD-e-12" value="" style="ellipse;shape=doubleEllipse;html=1;dashed=0;whiteSpace=wrap;aspect=fixed;" vertex="1" parent="_p1aaBmgK1zu_7o9eD-e-2">
          <mxGeometry x="305" y="392" width="30" height="30" as="geometry" />
        </mxCell>
        <mxCell id="_p1aaBmgK1zu_7o9eD-e-13" style="edgeStyle=orthogonalEdgeStyle;rounded=0;orthogonalLoop=1;jettySize=auto;html=1;entryX=0;entryY=0.5;entryDx=0;entryDy=0;" edge="1" parent="_p1aaBmgK1zu_7o9eD-e-2" source="_p1aaBmgK1zu_7o9eD-e-5" target="_p1aaBmgK1zu_7o9eD-e-7">
          <mxGeometry relative="1" as="geometry" />
        </mxCell>
        <mxCell id="_p1aaBmgK1zu_7o9eD-e-14" style="edgeStyle=orthogonalEdgeStyle;rounded=0;orthogonalLoop=1;jettySize=auto;html=1;" edge="1" parent="_p1aaBmgK1zu_7o9eD-e-2" source="_p1aaBmgK1zu_7o9eD-e-7" target="_p1aaBmgK1zu_7o9eD-e-6">
          <mxGeometry relative="1" as="geometry">
            <Array as="points">
              <mxPoint x="320" y="192" />
              <mxPoint x="80" y="192" />
            </Array>
          </mxGeometry>
        </mxCell>
        <mxCell id="_p1aaBmgK1zu_7o9eD-e-18" value="Sistem" style="swimlane;html=1;startSize=20;" vertex="1" parent="_p1aaBmgK1zu_7o9eD-e-1">
          <mxGeometry x="210" y="20" width="230" height="452" as="geometry" />
        </mxCell>
        <mxCell id="_p1aaBmgK1zu_7o9eD-e-41" value="&lt;font style=&quot;font-size: 9px;&quot;&gt;&lt;b style=&quot;mso-bidi-font-weight:normal&quot;&gt;&lt;i style=&quot;mso-bidi-font-style:normal&quot;&gt;&lt;span style=&quot;font-family: &amp;quot;Times New Roman&amp;quot;, serif;&quot;&gt;Activity Diagram Akses Web Instansi Daerah&lt;/span&gt;&lt;/i&gt;&lt;i&gt;&lt;br&gt;&lt;/i&gt;&lt;/b&gt;&lt;/font&gt;" style="swimlane;html=1;childLayout=stackLayout;startSize=20;rounded=0;shadow=0;labelBackgroundColor=none;strokeWidth=1;fontFamily=Verdana;fontSize=8;align=center;" vertex="1" parent="1">
          <mxGeometry x="520" y="80" width="440" height="472" as="geometry" />
        </mxCell>
        <mxCell id="_p1aaBmgK1zu_7o9eD-e-42" value="Admin" style="swimlane;html=1;startSize=20;" vertex="1" parent="_p1aaBmgK1zu_7o9eD-e-41">
          <mxGeometry y="20" width="210" height="452" as="geometry" />
        </mxCell>
        <mxCell id="_p1aaBmgK1zu_7o9eD-e-43" style="edgeStyle=orthogonalEdgeStyle;rounded=0;orthogonalLoop=1;jettySize=auto;html=1;entryX=0.5;entryY=0;entryDx=0;entryDy=0;" edge="1" parent="_p1aaBmgK1zu_7o9eD-e-42" source="_p1aaBmgK1zu_7o9eD-e-44" target="_p1aaBmgK1zu_7o9eD-e-45">
          <mxGeometry relative="1" as="geometry" />
        </mxCell>
        <mxCell id="_p1aaBmgK1zu_7o9eD-e-44" value="" style="strokeWidth=2;html=1;shape=mxgraph.flowchart.start_2;whiteSpace=wrap;" vertex="1" parent="_p1aaBmgK1zu_7o9eD-e-42">
          <mxGeometry x="65" y="50" width="30" height="30" as="geometry" />
        </mxCell>
        <mxCell id="_p1aaBmgK1zu_7o9eD-e-45" value="Akses Website" style="rounded=1;whiteSpace=wrap;html=1;fontSize=10;" vertex="1" parent="_p1aaBmgK1zu_7o9eD-e-42">
          <mxGeometry x="30" y="110" width="100" height="30" as="geometry" />
        </mxCell>
        <mxCell id="_p1aaBmgK1zu_7o9eD-e-46" style="edgeStyle=orthogonalEdgeStyle;rounded=0;orthogonalLoop=1;jettySize=auto;html=1;" edge="1" parent="_p1aaBmgK1zu_7o9eD-e-42" source="_p1aaBmgK1zu_7o9eD-e-47" target="_p1aaBmgK1zu_7o9eD-e-50">
          <mxGeometry relative="1" as="geometry" />
        </mxCell>
        <mxCell id="_p1aaBmgK1zu_7o9eD-e-47" value="Melihat daftar instansi" style="rounded=1;whiteSpace=wrap;html=1;fontSize=10;" vertex="1" parent="_p1aaBmgK1zu_7o9eD-e-42">
          <mxGeometry x="30" y="232" width="100" height="30" as="geometry" />
        </mxCell>
        <mxCell id="_p1aaBmgK1zu_7o9eD-e-48" value="&lt;div&gt;Tampil Homepage&lt;/div&gt;&lt;div&gt;web portal&lt;br&gt;&lt;/div&gt;" style="rounded=1;whiteSpace=wrap;html=1;fontSize=10;" vertex="1" parent="_p1aaBmgK1zu_7o9eD-e-42">
          <mxGeometry x="270" y="110" width="100" height="30" as="geometry" />
        </mxCell>
        <mxCell id="_p1aaBmgK1zu_7o9eD-e-49" style="edgeStyle=orthogonalEdgeStyle;rounded=0;orthogonalLoop=1;jettySize=auto;html=1;" edge="1" parent="_p1aaBmgK1zu_7o9eD-e-42" source="_p1aaBmgK1zu_7o9eD-e-50" target="_p1aaBmgK1zu_7o9eD-e-52">
          <mxGeometry relative="1" as="geometry" />
        </mxCell>
        <mxCell id="_p1aaBmgK1zu_7o9eD-e-50" value="Pilih Instansi" style="rounded=1;whiteSpace=wrap;html=1;fontSize=10;" vertex="1" parent="_p1aaBmgK1zu_7o9eD-e-42">
          <mxGeometry x="30" y="322" width="100" height="30" as="geometry" />
        </mxCell>
        <mxCell id="_p1aaBmgK1zu_7o9eD-e-51" style="edgeStyle=orthogonalEdgeStyle;rounded=0;orthogonalLoop=1;jettySize=auto;html=1;entryX=0.5;entryY=0;entryDx=0;entryDy=0;" edge="1" parent="_p1aaBmgK1zu_7o9eD-e-42" source="_p1aaBmgK1zu_7o9eD-e-52" target="_p1aaBmgK1zu_7o9eD-e-53">
          <mxGeometry relative="1" as="geometry" />
        </mxCell>
        <mxCell id="_p1aaBmgK1zu_7o9eD-e-52" value="Mengarahkan instansi terkait" style="rounded=1;whiteSpace=wrap;html=1;fontSize=10;" vertex="1" parent="_p1aaBmgK1zu_7o9eD-e-42">
          <mxGeometry x="270" y="322" width="100" height="30" as="geometry" />
        </mxCell>
        <mxCell id="_p1aaBmgK1zu_7o9eD-e-53" value="" style="ellipse;shape=doubleEllipse;html=1;dashed=0;whiteSpace=wrap;aspect=fixed;" vertex="1" parent="_p1aaBmgK1zu_7o9eD-e-42">
          <mxGeometry x="305" y="392" width="30" height="30" as="geometry" />
        </mxCell>
        <mxCell id="_p1aaBmgK1zu_7o9eD-e-54" style="edgeStyle=orthogonalEdgeStyle;rounded=0;orthogonalLoop=1;jettySize=auto;html=1;entryX=0;entryY=0.5;entryDx=0;entryDy=0;" edge="1" parent="_p1aaBmgK1zu_7o9eD-e-42" source="_p1aaBmgK1zu_7o9eD-e-45" target="_p1aaBmgK1zu_7o9eD-e-48">
          <mxGeometry relative="1" as="geometry" />
        </mxCell>
        <mxCell id="_p1aaBmgK1zu_7o9eD-e-55" style="edgeStyle=orthogonalEdgeStyle;rounded=0;orthogonalLoop=1;jettySize=auto;html=1;" edge="1" parent="_p1aaBmgK1zu_7o9eD-e-42" source="_p1aaBmgK1zu_7o9eD-e-48" target="_p1aaBmgK1zu_7o9eD-e-47">
          <mxGeometry relative="1" as="geometry">
            <Array as="points">
              <mxPoint x="320" y="192" />
              <mxPoint x="80" y="192" />
            </Array>
          </mxGeometry>
        </mxCell>
        <mxCell id="_p1aaBmgK1zu_7o9eD-e-56" value="Sistem" style="swimlane;html=1;startSize=20;" vertex="1" parent="_p1aaBmgK1zu_7o9eD-e-41">
          <mxGeometry x="210" y="20" width="230" height="452" as="geometry" />
        </mxCell>
      </root>
    </mxGraphModel>
  </diagram>
</mxfile>
